<?xml version="1.0" encoding="UTF-8" standalone="no"?>
<!DOCTYPE svg PUBLIC "-//W3C//DTD SVG 1.1//EN"
 "http://www.w3.org/Graphics/SVG/1.1/DTD/svg11.dtd">
<!-- Generated by graphviz version 2.43.0 (0)
 -->
<!-- Title: fig5_1 Pages: 1 -->
<svg width="168pt" height="234pt"
 viewBox="0.00 0.00 168.00 234.00" xmlns="http://www.w3.org/2000/svg" xmlns:xlink="http://www.w3.org/1999/xlink">
<g id="graph0" class="graph" transform="scale(1 1) rotate(0) translate(4 230)">
<title>fig5_1</title>
<polygon fill="white" stroke="transparent" points="-4,4 -4,-230 164,-230 164,4 -4,4"/>
<!-- 0 -->
<g id="node1" class="node">
<title>0</title>
<ellipse fill="#a6cee3" stroke="black" cx="70" cy="-208" rx="18" ry="18"/>
<text text-anchor="middle" x="70" y="-204.3" font-family="Courier,monospace" font-size="14.00">0</text>
</g>
<!-- 1 -->
<g id="node2" class="node">
<title>1</title>
<ellipse fill="#a6cee3" stroke="black" cx="41" cy="-117" rx="18" ry="18"/>
<ellipse fill="none" stroke="black" cx="41" cy="-117" rx="22" ry="22"/>
<text text-anchor="middle" x="41" y="-113.3" font-family="Courier,monospace" font-size="14.00">1</text>
</g>
<!-- 0&#45;&gt;1 -->
<g id="edge1" class="edge">
<title>0&#45;&gt;1</title>
<path fill="none" stroke="black" d="M59.86,-192.99C55.87,-186.83 51.63,-179.34 49,-172 46.41,-164.76 44.66,-156.69 43.47,-149.04"/>
<polygon fill="black" stroke="black" points="46.93,-148.45 42.18,-138.98 39.98,-149.34 46.93,-148.45"/>
<text text-anchor="middle" x="61.5" y="-160.8" font-family="Courier,monospace" font-size="14.00">eps</text>
</g>
<!-- 3 -->
<g id="node3" class="node">
<title>3</title>
<ellipse fill="#a6cee3" stroke="black" cx="107" cy="-117" rx="18" ry="18"/>
<text text-anchor="middle" x="107" y="-113.3" font-family="Courier,monospace" font-size="14.00">3</text>
</g>
<!-- 0&#45;&gt;3 -->
<g id="edge2" class="edge">
<title>0&#45;&gt;3</title>
<path fill="none" stroke="black" d="M76.61,-191.09C82.14,-177.8 90.12,-158.61 96.51,-143.23"/>
<polygon fill="black" stroke="black" points="99.84,-144.35 100.44,-133.77 93.37,-141.66 99.84,-144.35"/>
<text text-anchor="middle" x="102.5" y="-160.8" font-family="Courier,monospace" font-size="14.00">eps</text>
</g>
<!-- 2 -->
<g id="node4" class="node">
<title>2</title>
<ellipse fill="#a6cee3" stroke="black" cx="22" cy="-22" rx="18" ry="18"/>
<ellipse fill="none" stroke="black" cx="22" cy="-22" rx="22" ry="22"/>
<text text-anchor="middle" x="22" y="-18.3" font-family="Courier,monospace" font-size="14.00">2</text>
</g>
<!-- 1&#45;&gt;2 -->
<g id="edge3" class="edge">
<title>1&#45;&gt;2</title>
<path fill="none" stroke="black" d="M36.78,-95.36C34.29,-83.16 31.09,-67.49 28.3,-53.85"/>
<polygon fill="black" stroke="black" points="31.7,-53 26.27,-43.9 24.84,-54.4 31.7,-53"/>
<text text-anchor="middle" x="37.5" y="-65.8" font-family="Courier,monospace" font-size="14.00">a</text>
</g>
<!-- 4 -->
<g id="node5" class="node">
<title>4</title>
<ellipse fill="#a6cee3" stroke="black" cx="111" cy="-22" rx="18" ry="18"/>
<ellipse fill="none" stroke="black" cx="111" cy="-22" rx="22" ry="22"/>
<text text-anchor="middle" x="111" y="-18.3" font-family="Courier,monospace" font-size="14.00">4</text>
</g>
<!-- 3&#45;&gt;4 -->
<g id="edge5" class="edge">
<title>3&#45;&gt;4</title>
<path fill="none" stroke="black" d="M107.73,-98.94C108.27,-86.54 109.01,-69.38 109.64,-54.51"/>
<polygon fill="black" stroke="black" points="113.16,-54.34 110.09,-44.19 106.16,-54.03 113.16,-54.34"/>
<text text-anchor="middle" x="113.5" y="-65.8" font-family="Courier,monospace" font-size="14.00">b</text>
</g>
<!-- 2&#45;&gt;2 -->
<g id="edge4" class="edge">
<title>2&#45;&gt;2</title>
<path fill="none" stroke="black" d="M42.58,-30.37C52.84,-31.53 62,-28.74 62,-22 62,-17.68 58.24,-14.99 52.84,-13.91"/>
<polygon fill="black" stroke="black" points="52.67,-10.41 42.58,-13.63 52.48,-17.4 52.67,-10.41"/>
<text text-anchor="middle" x="66.5" y="-18.3" font-family="Courier,monospace" font-size="14.00">a</text>
</g>
<!-- 4&#45;&gt;4 -->
<g id="edge6" class="edge">
<title>4&#45;&gt;4</title>
<path fill="none" stroke="black" d="M131.58,-30.37C141.84,-31.53 151,-28.74 151,-22 151,-17.68 147.24,-14.99 141.84,-13.91"/>
<polygon fill="black" stroke="black" points="141.67,-10.41 131.58,-13.63 141.48,-17.4 141.67,-10.41"/>
<text text-anchor="middle" x="155.5" y="-18.3" font-family="Courier,monospace" font-size="14.00">b</text>
</g>
</g>
</svg>
