<?xml version="1.0" encoding="UTF-8" standalone="no"?>
<!DOCTYPE svg PUBLIC "-//W3C//DTD SVG 1.1//EN"
 "http://www.w3.org/Graphics/SVG/1.1/DTD/svg11.dtd">
<!-- Generated by graphviz version 2.43.0 (0)
 -->
<!-- Title: guide Pages: 1 -->
<svg width="170pt" height="226pt"
 viewBox="0.00 0.00 170.00 226.00" xmlns="http://www.w3.org/2000/svg" xmlns:xlink="http://www.w3.org/1999/xlink">
<g id="graph0" class="graph" transform="scale(1 1) rotate(0) translate(4 222)">
<title>guide</title>
<polygon fill="white" stroke="transparent" points="-4,4 -4,-222 166,-222 166,4 -4,4"/>
<!-- 0 -->
<g id="node1" class="node">
<title>0</title>
<ellipse fill="#a6cee3" stroke="black" cx="118" cy="-200" rx="18" ry="18"/>
<text text-anchor="middle" x="118" y="-196.3" font-family="Courier,monospace" font-size="14.00">0</text>
</g>
<!-- 1 -->
<g id="node2" class="node">
<title>1</title>
<ellipse fill="#a6cee3" stroke="black" cx="84" cy="-109" rx="18" ry="18"/>
<ellipse fill="none" stroke="black" cx="84" cy="-109" rx="22" ry="22"/>
<text text-anchor="middle" x="84" y="-105.3" font-family="Courier,monospace" font-size="14.00">1</text>
</g>
<!-- 0&#45;&gt;1 -->
<g id="edge1" class="edge">
<title>0&#45;&gt;1</title>
<path fill="none" stroke="black" d="M111.76,-182.68C107.15,-170.61 100.75,-153.84 95.25,-139.45"/>
<polygon fill="black" stroke="black" points="98.46,-138.05 91.62,-129.96 91.92,-140.55 98.46,-138.05"/>
<text text-anchor="middle" x="108.5" y="-152.8" font-family="Courier,monospace" font-size="14.00">a</text>
</g>
<!-- 3 -->
<g id="node3" class="node">
<title>3</title>
<ellipse fill="#a6cee3" stroke="black" cx="22" cy="-109" rx="18" ry="18"/>
<ellipse fill="none" stroke="black" cx="22" cy="-109" rx="22" ry="22"/>
<text text-anchor="middle" x="22" y="-105.3" font-family="Courier,monospace" font-size="14.00">3</text>
</g>
<!-- 0&#45;&gt;3 -->
<g id="edge2" class="edge">
<title>0&#45;&gt;3</title>
<path fill="none" stroke="black" d="M103.17,-189.73C93.08,-183.11 79.68,-173.7 69,-164 59.32,-155.21 49.66,-144.53 41.64,-134.99"/>
<polygon fill="black" stroke="black" points="44.11,-132.48 35.05,-126.98 38.7,-136.93 44.11,-132.48"/>
<text text-anchor="middle" x="81.5" y="-152.8" font-family="Courier,monospace" font-size="14.00">eps</text>
</g>
<!-- 2 -->
<g id="node4" class="node">
<title>2</title>
<ellipse fill="#a6cee3" stroke="black" cx="142" cy="-18" rx="18" ry="18"/>
<text text-anchor="middle" x="142" y="-14.3" font-family="Courier,monospace" font-size="14.00">2</text>
</g>
<!-- 1&#45;&gt;2 -->
<g id="edge3" class="edge">
<title>1&#45;&gt;2</title>
<path fill="none" stroke="black" d="M95.64,-89.98C102.43,-79.48 111.18,-65.98 119,-54 121.53,-50.13 124.22,-46.02 126.84,-42.03"/>
<polygon fill="black" stroke="black" points="129.79,-43.91 132.36,-33.63 123.94,-40.07 129.79,-43.91"/>
<text text-anchor="middle" x="123.5" y="-57.8" font-family="Courier,monospace" font-size="14.00">b</text>
</g>
<!-- 4 -->
<g id="node5" class="node">
<title>4</title>
<ellipse fill="#a6cee3" stroke="black" cx="22" cy="-18" rx="18" ry="18"/>
<text text-anchor="middle" x="22" y="-14.3" font-family="Courier,monospace" font-size="14.00">4</text>
</g>
<!-- 3&#45;&gt;4 -->
<g id="edge6" class="edge">
<title>3&#45;&gt;4</title>
<path fill="none" stroke="black" d="M22,-86.91C22,-74.78 22,-59.41 22,-46.36"/>
<polygon fill="black" stroke="black" points="25.5,-46.07 22,-36.07 18.5,-46.07 25.5,-46.07"/>
<text text-anchor="middle" x="26.5" y="-57.8" font-family="Courier,monospace" font-size="14.00">a</text>
</g>
<!-- 3&#45;&gt;4 -->
<g id="edge7" class="edge">
<title>3&#45;&gt;4</title>
<path fill="none" stroke="black" d="M28.81,-88.07C31.49,-77.9 33.59,-65.33 32,-54 31.59,-51.07 30.99,-48.03 30.29,-45.04"/>
<polygon fill="black" stroke="black" points="33.62,-43.92 27.64,-35.18 26.86,-45.74 33.62,-43.92"/>
<text text-anchor="middle" x="36.5" y="-57.8" font-family="Courier,monospace" font-size="14.00">b</text>
</g>
<!-- 2&#45;&gt;0 -->
<g id="edge4" class="edge">
<title>2&#45;&gt;0</title>
<path fill="none" stroke="black" d="M139.73,-36.02C135.56,-67.31 126.64,-134.21 121.62,-171.84"/>
<polygon fill="black" stroke="black" points="118.11,-171.69 120.26,-182.07 125.05,-172.62 118.11,-171.69"/>
<text text-anchor="middle" x="136.5" y="-105.3" font-family="Courier,monospace" font-size="14.00">a</text>
</g>
<!-- 2&#45;&gt;0 -->
<g id="edge5" class="edge">
<title>2&#45;&gt;0</title>
<path fill="none" stroke="black" d="M146.6,-35.6C147.98,-41.38 149.32,-47.93 150,-54 155.52,-102.92 154.69,-118.06 137,-164 135.53,-167.81 133.73,-171.73 131.83,-175.5"/>
<polygon fill="black" stroke="black" points="128.68,-173.96 127.02,-184.42 134.84,-177.28 128.68,-173.96"/>
<text text-anchor="middle" x="157.5" y="-105.3" font-family="Courier,monospace" font-size="14.00">b</text>
</g>
<!-- 4&#45;&gt;3 -->
<g id="edge8" class="edge">
<title>4&#45;&gt;3</title>
<path fill="none" stroke="black" d="M14.82,-34.69C12.47,-40.61 10.17,-47.49 9,-54 7.54,-62.14 8.51,-70.89 10.46,-78.92"/>
<polygon fill="black" stroke="black" points="7.14,-80.03 13.33,-88.62 13.85,-78.04 7.14,-80.03"/>
<text text-anchor="middle" x="13.5" y="-57.8" font-family="Courier,monospace" font-size="14.00">b</text>
</g>
</g>
</svg>
