<?xml version="1.0" encoding="UTF-8" standalone="no"?>
<!DOCTYPE svg PUBLIC "-//W3C//DTD SVG 1.1//EN"
 "http://www.w3.org/Graphics/SVG/1.1/DTD/svg11.dtd">
<!-- Generated by graphviz version 2.43.0 (0)
 -->
<!-- Title: fig5_5 Pages: 1 -->
<svg width="199pt" height="755pt"
 viewBox="0.00 0.00 199.00 754.90" xmlns="http://www.w3.org/2000/svg" xmlns:xlink="http://www.w3.org/1999/xlink">
<g id="graph0" class="graph" transform="scale(1 1) rotate(0) translate(4 750.9)">
<title>fig5_5</title>
<polygon fill="white" stroke="transparent" points="-4,4 -4,-750.9 195,-750.9 195,4 -4,4"/>
<!-- 0 -->
<g id="node1" class="node">
<title>0</title>
<ellipse fill="#a6cee3" stroke="black" cx="142" cy="-728.9" rx="18" ry="18"/>
<text text-anchor="middle" x="142" y="-725.2" font-family="Courier,monospace" font-size="14.00">0</text>
</g>
<!-- 1 -->
<g id="node2" class="node">
<title>1</title>
<ellipse fill="#a6cee3" stroke="black" cx="98" cy="-641.9" rx="18" ry="18"/>
<text text-anchor="middle" x="98" y="-638.2" font-family="Courier,monospace" font-size="14.00">1</text>
</g>
<!-- 0&#45;&gt;1 -->
<g id="edge1" class="edge">
<title>0&#45;&gt;1</title>
<path fill="none" stroke="black" d="M134.13,-712.7C127.6,-700.09 118.2,-681.91 110.61,-667.27"/>
<polygon fill="black" stroke="black" points="113.65,-665.52 105.95,-658.25 107.44,-668.74 113.65,-665.52"/>
<text text-anchor="middle" x="134.5" y="-681.7" font-family="Courier,monospace" font-size="14.00">eps</text>
</g>
<!-- 7 -->
<g id="node3" class="node">
<title>7</title>
<ellipse fill="#a6cee3" stroke="black" cx="142" cy="-293.9" rx="18" ry="18"/>
<text text-anchor="middle" x="142" y="-290.2" font-family="Courier,monospace" font-size="14.00">7</text>
</g>
<!-- 0&#45;&gt;7 -->
<g id="edge2" class="edge">
<title>0&#45;&gt;7</title>
<path fill="none" stroke="black" d="M149.2,-712.29C156.27,-695.52 166,-667.89 166,-642.9 166,-642.9 166,-642.9 166,-379.9 166,-359.2 159.33,-336.69 153.02,-320.05"/>
<polygon fill="black" stroke="black" points="156.17,-318.49 149.2,-310.5 149.67,-321.09 156.17,-318.49"/>
<text text-anchor="middle" x="178.5" y="-507.7" font-family="Courier,monospace" font-size="14.00">eps</text>
</g>
<!-- 2 -->
<g id="node4" class="node">
<title>2</title>
<ellipse fill="#a6cee3" stroke="black" cx="18" cy="-554.9" rx="18" ry="18"/>
<text text-anchor="middle" x="18" y="-551.2" font-family="Courier,monospace" font-size="14.00">2</text>
</g>
<!-- 1&#45;&gt;2 -->
<g id="edge3" class="edge">
<title>1&#45;&gt;2</title>
<path fill="none" stroke="black" d="M82,-632.75C70.91,-626.52 56.32,-617.1 46,-605.9 39.34,-598.67 33.65,-589.57 29.17,-581.12"/>
<polygon fill="black" stroke="black" points="32.22,-579.4 24.65,-572 25.95,-582.51 32.22,-579.4"/>
<text text-anchor="middle" x="58.5" y="-594.7" font-family="Courier,monospace" font-size="14.00">eps</text>
</g>
<!-- 4 -->
<g id="node5" class="node">
<title>4</title>
<ellipse fill="#a6cee3" stroke="black" cx="72" cy="-554.9" rx="18" ry="18"/>
<text text-anchor="middle" x="72" y="-551.2" font-family="Courier,monospace" font-size="14.00">4</text>
</g>
<!-- 1&#45;&gt;4 -->
<g id="edge4" class="edge">
<title>1&#45;&gt;4</title>
<path fill="none" stroke="black" d="M88.63,-626.44C85.08,-620.33 81.34,-612.99 79,-605.9 76.61,-598.65 75.04,-590.56 74,-583.03"/>
<polygon fill="black" stroke="black" points="77.46,-582.45 72.87,-572.9 70.51,-583.23 77.46,-582.45"/>
<text text-anchor="middle" x="91.5" y="-594.7" font-family="Courier,monospace" font-size="14.00">eps</text>
</g>
<!-- 8 -->
<g id="node9" class="node">
<title>8</title>
<ellipse fill="#a6cee3" stroke="black" cx="142" cy="-206.9" rx="18" ry="18"/>
<text text-anchor="middle" x="142" y="-203.2" font-family="Courier,monospace" font-size="14.00">8</text>
</g>
<!-- 7&#45;&gt;8 -->
<g id="edge11" class="edge">
<title>7&#45;&gt;8</title>
<path fill="none" stroke="black" d="M142,-275.7C142,-264.06 142,-248.44 142,-235.13"/>
<polygon fill="black" stroke="black" points="145.5,-235.07 142,-225.07 138.5,-235.07 145.5,-235.07"/>
<text text-anchor="middle" x="146.5" y="-246.7" font-family="Courier,monospace" font-size="14.00">a</text>
</g>
<!-- 3 -->
<g id="node6" class="node">
<title>3</title>
<ellipse fill="#a6cee3" stroke="black" cx="18" cy="-467.9" rx="18" ry="18"/>
<text text-anchor="middle" x="18" y="-464.2" font-family="Courier,monospace" font-size="14.00">3</text>
</g>
<!-- 2&#45;&gt;3 -->
<g id="edge5" class="edge">
<title>2&#45;&gt;3</title>
<path fill="none" stroke="black" d="M18,-536.7C18,-525.06 18,-509.44 18,-496.13"/>
<polygon fill="black" stroke="black" points="21.5,-496.07 18,-486.07 14.5,-496.07 21.5,-496.07"/>
<text text-anchor="middle" x="22.5" y="-507.7" font-family="Courier,monospace" font-size="14.00">a</text>
</g>
<!-- 5 -->
<g id="node8" class="node">
<title>5</title>
<ellipse fill="#a6cee3" stroke="black" cx="72" cy="-467.9" rx="18" ry="18"/>
<text text-anchor="middle" x="72" y="-464.2" font-family="Courier,monospace" font-size="14.00">5</text>
</g>
<!-- 4&#45;&gt;5 -->
<g id="edge7" class="edge">
<title>4&#45;&gt;5</title>
<path fill="none" stroke="black" d="M72,-536.7C72,-525.06 72,-509.44 72,-496.13"/>
<polygon fill="black" stroke="black" points="75.5,-496.07 72,-486.07 68.5,-496.07 75.5,-496.07"/>
<text text-anchor="middle" x="76.5" y="-507.7" font-family="Courier,monospace" font-size="14.00">b</text>
</g>
<!-- 6 -->
<g id="node7" class="node">
<title>6</title>
<ellipse fill="#a6cee3" stroke="black" cx="97" cy="-380.9" rx="18" ry="18"/>
<text text-anchor="middle" x="97" y="-377.2" font-family="Courier,monospace" font-size="14.00">6</text>
</g>
<!-- 3&#45;&gt;6 -->
<g id="edge6" class="edge">
<title>3&#45;&gt;6</title>
<path fill="none" stroke="black" d="M24.68,-450.82C29.55,-440.38 36.88,-426.89 46,-416.9 53.6,-408.57 63.55,-401.18 72.64,-395.37"/>
<polygon fill="black" stroke="black" points="74.58,-398.28 81.32,-390.1 70.95,-392.3 74.58,-398.28"/>
<text text-anchor="middle" x="58.5" y="-420.7" font-family="Courier,monospace" font-size="14.00">eps</text>
</g>
<!-- 6&#45;&gt;1 -->
<g id="edge9" class="edge">
<title>6&#45;&gt;1</title>
<path fill="none" stroke="black" d="M101.02,-398.53C102.24,-404.31 103.4,-410.85 104,-416.9 112.28,-500.49 111.12,-522.2 104,-605.9 103.78,-608.48 103.47,-611.15 103.11,-613.82"/>
<polygon fill="black" stroke="black" points="99.62,-613.46 101.51,-623.88 106.54,-614.55 99.62,-613.46"/>
<text text-anchor="middle" x="121.5" y="-507.7" font-family="Courier,monospace" font-size="14.00">eps</text>
</g>
<!-- 6&#45;&gt;7 -->
<g id="edge10" class="edge">
<title>6&#45;&gt;7</title>
<path fill="none" stroke="black" d="M105.05,-364.7C111.72,-352.09 121.35,-333.91 129.1,-319.27"/>
<polygon fill="black" stroke="black" points="132.29,-320.72 133.87,-310.25 126.1,-317.45 132.29,-320.72"/>
<text text-anchor="middle" x="134.5" y="-333.7" font-family="Courier,monospace" font-size="14.00">eps</text>
</g>
<!-- 5&#45;&gt;6 -->
<g id="edge8" class="edge">
<title>5&#45;&gt;6</title>
<path fill="none" stroke="black" d="M72.96,-449.92C73.86,-440.09 75.61,-427.59 79,-416.9 80.16,-413.23 81.69,-409.48 83.35,-405.87"/>
<polygon fill="black" stroke="black" points="86.57,-407.26 87.96,-396.75 80.32,-404.1 86.57,-407.26"/>
<text text-anchor="middle" x="91.5" y="-420.7" font-family="Courier,monospace" font-size="14.00">eps</text>
</g>
<!-- 9 -->
<g id="node10" class="node">
<title>9</title>
<ellipse fill="#a6cee3" stroke="black" cx="142" cy="-119.9" rx="18" ry="18"/>
<text text-anchor="middle" x="142" y="-116.2" font-family="Courier,monospace" font-size="14.00">9</text>
</g>
<!-- 8&#45;&gt;9 -->
<g id="edge12" class="edge">
<title>8&#45;&gt;9</title>
<path fill="none" stroke="black" d="M142,-188.7C142,-177.06 142,-161.44 142,-148.13"/>
<polygon fill="black" stroke="black" points="145.5,-148.07 142,-138.07 138.5,-148.07 145.5,-148.07"/>
<text text-anchor="middle" x="146.5" y="-159.7" font-family="Courier,monospace" font-size="14.00">b</text>
</g>
<!-- 10 -->
<g id="node11" class="node">
<title>10</title>
<ellipse fill="#a6cee3" stroke="black" cx="142" cy="-25.45" rx="21.4" ry="21.4"/>
<ellipse fill="none" stroke="black" cx="142" cy="-25.45" rx="25.4" ry="25.4"/>
<text text-anchor="middle" x="142" y="-21.75" font-family="Courier,monospace" font-size="14.00">10</text>
</g>
<!-- 9&#45;&gt;10 -->
<g id="edge13" class="edge">
<title>9&#45;&gt;10</title>
<path fill="none" stroke="black" d="M142,-101.51C142,-90.17 142,-74.98 142,-61.23"/>
<polygon fill="black" stroke="black" points="145.5,-61.09 142,-51.09 138.5,-61.09 145.5,-61.09"/>
<text text-anchor="middle" x="146.5" y="-72.7" font-family="Courier,monospace" font-size="14.00">b</text>
</g>
</g>
</svg>
