<?xml version="1.0" encoding="UTF-8" standalone="no"?>
<!DOCTYPE svg PUBLIC "-//W3C//DTD SVG 1.1//EN"
 "http://www.w3.org/Graphics/SVG/1.1/DTD/svg11.dtd">
<!-- Generated by graphviz version 2.43.0 (0)
 -->
<!-- Title: fig5_3 Pages: 1 -->
<svg width="208pt" height="400pt"
 viewBox="0.00 0.00 207.81 400.00" xmlns="http://www.w3.org/2000/svg" xmlns:xlink="http://www.w3.org/1999/xlink">
<g id="graph0" class="graph" transform="scale(1 1) rotate(0) translate(4 396)">
<title>fig5_3</title>
<polygon fill="white" stroke="transparent" points="-4,4 -4,-396 203.81,-396 203.81,4 -4,4"/>
<!-- 0 -->
<g id="node1" class="node">
<title>0</title>
<ellipse fill="#a6cee3" stroke="black" cx="129.81" cy="-374" rx="18" ry="18"/>
<text text-anchor="middle" x="129.81" y="-370.3" font-family="Courier,monospace" font-size="14.00">A</text>
</g>
<!-- 1 -->
<g id="node2" class="node">
<title>1</title>
<ellipse fill="#a6cee3" stroke="black" cx="60.81" cy="-287" rx="18" ry="18"/>
<text text-anchor="middle" x="60.81" y="-283.3" font-family="Courier,monospace" font-size="14.00">B</text>
</g>
<!-- 0&#45;&gt;1 -->
<g id="edge1" class="edge">
<title>0&#45;&gt;1</title>
<path fill="none" stroke="black" d="M115.87,-362.24C107.98,-355.73 98.23,-346.98 90.81,-338 84.38,-330.2 78.4,-320.88 73.5,-312.41"/>
<polygon fill="black" stroke="black" points="76.55,-310.7 68.63,-303.66 70.44,-314.1 76.55,-310.7"/>
<text text-anchor="middle" x="103.31" y="-326.8" font-family="Courier,monospace" font-size="14.00">eps</text>
</g>
<!-- 4 -->
<g id="node3" class="node">
<title>4</title>
<ellipse fill="#a6cee3" stroke="black" cx="109.81" cy="-22" rx="18" ry="18"/>
<ellipse fill="none" stroke="black" cx="109.81" cy="-22" rx="22" ry="22"/>
<text text-anchor="middle" x="109.81" y="-18.3" font-family="Courier,monospace" font-size="14.00">E</text>
</g>
<!-- 0&#45;&gt;4 -->
<g id="edge2" class="edge">
<title>0&#45;&gt;4</title>
<path fill="none" stroke="black" d="M129.81,-355.74C129.81,-338.57 129.81,-311.46 129.81,-288 129.81,-288 129.81,-288 129.81,-112 129.81,-91.93 124.92,-69.93 119.97,-52.82"/>
<polygon fill="black" stroke="black" points="123.19,-51.4 116.92,-42.86 116.5,-53.45 123.19,-51.4"/>
<text text-anchor="middle" x="142.31" y="-196.3" font-family="Courier,monospace" font-size="14.00">eps</text>
</g>
<!-- 1&#45;&gt;4 -->
<g id="edge4" class="edge">
<title>1&#45;&gt;4</title>
<path fill="none" stroke="black" d="M47.11,-274.94C33.16,-262.71 12.4,-241.6 3.81,-218 -1.65,-202.96 -0.51,-197.4 3.81,-182 19.14,-127.4 61.25,-74.83 87.55,-45.92"/>
<polygon fill="black" stroke="black" points="90.28,-48.12 94.52,-38.41 85.15,-43.36 90.28,-48.12"/>
<text text-anchor="middle" x="19.31" y="-152.8" font-family="Courier,monospace" font-size="14.00">b</text>
</g>
<!-- 2 -->
<g id="node4" class="node">
<title>2</title>
<ellipse fill="#a6cee3" stroke="black" cx="30.81" cy="-200" rx="18" ry="18"/>
<text text-anchor="middle" x="30.81" y="-196.3" font-family="Courier,monospace" font-size="14.00">C</text>
</g>
<!-- 1&#45;&gt;2 -->
<g id="edge3" class="edge">
<title>1&#45;&gt;2</title>
<path fill="none" stroke="black" d="M53.56,-270.12C50.96,-264.18 48.12,-257.34 45.81,-251 43.09,-243.5 40.47,-235.25 38.2,-227.65"/>
<polygon fill="black" stroke="black" points="41.5,-226.45 35.35,-217.82 34.77,-228.4 41.5,-226.45"/>
<text text-anchor="middle" x="58.31" y="-239.8" font-family="Courier,monospace" font-size="14.00">eps</text>
</g>
<!-- 4&#45;&gt;0 -->
<g id="edge8" class="edge">
<title>4&#45;&gt;0</title>
<path fill="none" stroke="black" d="M129.01,-33.11C152.96,-47.27 190.81,-75.44 190.81,-112 190.81,-288 190.81,-288 190.81,-288 190.81,-315.72 169.13,-340.6 151.62,-356.17"/>
<polygon fill="black" stroke="black" points="149.34,-353.52 143.96,-362.65 153.86,-358.87 149.34,-353.52"/>
<text text-anchor="middle" x="195.31" y="-196.3" font-family="Courier,monospace" font-size="14.00">b</text>
</g>
<!-- 4&#45;&gt;4 -->
<g id="edge9" class="edge">
<title>4&#45;&gt;4</title>
<path fill="none" stroke="black" d="M130.4,-30.37C140.66,-31.53 149.81,-28.74 149.81,-22 149.81,-17.68 146.06,-14.99 140.66,-13.91"/>
<polygon fill="black" stroke="black" points="140.49,-10.41 130.4,-13.63 140.3,-17.4 140.49,-10.41"/>
<text text-anchor="middle" x="154.31" y="-18.3" font-family="Courier,monospace" font-size="14.00">a</text>
</g>
<!-- 3 -->
<g id="node5" class="node">
<title>3</title>
<ellipse fill="#a6cee3" stroke="black" cx="83.81" cy="-113" rx="18" ry="18"/>
<text text-anchor="middle" x="83.81" y="-109.3" font-family="Courier,monospace" font-size="14.00">D</text>
</g>
<!-- 2&#45;&gt;3 -->
<g id="edge5" class="edge">
<title>2&#45;&gt;3</title>
<path fill="none" stroke="black" d="M40.01,-184.11C46.17,-174.16 54.46,-160.78 61.81,-149 64.17,-145.23 66.67,-141.24 69.11,-137.36"/>
<polygon fill="black" stroke="black" points="72.23,-138.96 74.59,-128.63 66.3,-135.24 72.23,-138.96"/>
<text text-anchor="middle" x="66.31" y="-152.8" font-family="Courier,monospace" font-size="14.00">a</text>
</g>
<!-- 3&#45;&gt;1 -->
<g id="edge7" class="edge">
<title>3&#45;&gt;1</title>
<path fill="none" stroke="black" d="M83.2,-131.01C82.05,-157.05 78.88,-208.27 70.81,-251 70.27,-253.91 69.58,-256.93 68.83,-259.92"/>
<polygon fill="black" stroke="black" points="65.4,-259.2 66.12,-269.77 72.15,-261.05 65.4,-259.2"/>
<text text-anchor="middle" x="83.31" y="-196.3" font-family="Courier,monospace" font-size="14.00">b</text>
</g>
<!-- 3&#45;&gt;4 -->
<g id="edge6" class="edge">
<title>3&#45;&gt;4</title>
<path fill="none" stroke="black" d="M84.9,-94.59C85.85,-84.84 87.59,-72.56 90.81,-62 91.94,-58.33 93.36,-54.57 94.93,-50.91"/>
<polygon fill="black" stroke="black" points="98.24,-52.1 99.3,-41.56 91.9,-49.14 98.24,-52.1"/>
<text text-anchor="middle" x="103.31" y="-65.8" font-family="Courier,monospace" font-size="14.00">eps</text>
</g>
</g>
</svg>
