<?xml version="1.0" encoding="UTF-8" standalone="no"?>
<!DOCTYPE svg PUBLIC "-//W3C//DTD SVG 1.1//EN"
 "http://www.w3.org/Graphics/SVG/1.1/DTD/svg11.dtd">
<!-- Generated by graphviz version 2.43.0 (0)
 -->
<!-- Title: EsempioConNodi50 Pages: 1 -->
<svg width="737pt" height="1807pt"
 viewBox="0.00 0.00 737.00 1807.00" xmlns="http://www.w3.org/2000/svg" xmlns:xlink="http://www.w3.org/1999/xlink">
<g id="graph0" class="graph" transform="scale(1 1) rotate(0) translate(4 1803)">
<title>EsempioConNodi50</title>
<polygon fill="white" stroke="transparent" points="-4,4 -4,-1803 733,-1803 733,4 -4,4"/>
<!-- 0 -->
<g id="node1" class="node">
<title>0</title>
<ellipse fill="#a6cee3" stroke="black" cx="520.5" cy="-528" rx="22" ry="22"/>
<ellipse fill="none" stroke="black" cx="520.5" cy="-528" rx="26" ry="26"/>
<text text-anchor="middle" x="520.5" y="-524.3" font-family="Courier,monospace" font-size="14.00">0</text>
</g>
<!-- 0&#45;&gt;0 -->
<g id="edge1" class="edge">
<title>0&#45;&gt;0</title>
<path fill="none" stroke="black" d="M544.93,-537.26C555.47,-538.02 564.5,-534.93 564.5,-528 564.5,-523.45 560.61,-520.56 554.96,-519.32"/>
<polygon fill="black" stroke="black" points="555.12,-515.82 544.93,-518.74 554.71,-522.81 555.12,-515.82"/>
<text text-anchor="middle" x="577" y="-524.3" font-family="Courier,monospace" font-size="14.00">eps</text>
</g>
<!-- 39 -->
<g id="node2" class="node">
<title>39</title>
<ellipse fill="#a6cee3" stroke="black" cx="520.5" cy="-421.5" rx="21.5" ry="21.5"/>
<text text-anchor="middle" x="520.5" y="-417.8" font-family="Courier,monospace" font-size="14.00">39</text>
</g>
<!-- 0&#45;&gt;39 -->
<g id="edge2" class="edge">
<title>0&#45;&gt;39</title>
<path fill="none" stroke="black" d="M520.5,-501.97C520.5,-487.35 520.5,-468.79 520.5,-453.28"/>
<polygon fill="black" stroke="black" points="524,-453.11 520.5,-443.11 517,-453.11 524,-453.11"/>
<text text-anchor="middle" x="525" y="-472.8" font-family="Courier,monospace" font-size="14.00">a</text>
</g>
<!-- 34 -->
<g id="node3" class="node">
<title>34</title>
<ellipse fill="#a6cee3" stroke="black" cx="544.5" cy="-319.5" rx="21.5" ry="21.5"/>
<text text-anchor="middle" x="544.5" y="-315.8" font-family="Courier,monospace" font-size="14.00">34</text>
</g>
<!-- 39&#45;&gt;34 -->
<g id="edge3" class="edge">
<title>39&#45;&gt;34</title>
<path fill="none" stroke="black" d="M525.36,-400.26C528.77,-386.03 533.4,-366.74 537.25,-350.7"/>
<polygon fill="black" stroke="black" points="540.72,-351.25 539.65,-340.71 533.91,-349.61 540.72,-351.25"/>
<text text-anchor="middle" x="539" y="-362.8" font-family="Courier,monospace" font-size="14.00">a</text>
</g>
<!-- 40 -->
<g id="node44" class="node">
<title>40</title>
<ellipse fill="#a6cee3" stroke="black" cx="544.5" cy="-217.5" rx="25.5" ry="25.5"/>
<ellipse fill="none" stroke="black" cx="544.5" cy="-217.5" rx="29.5" ry="29.5"/>
<text text-anchor="middle" x="544.5" y="-213.8" font-family="Courier,monospace" font-size="14.00">40</text>
</g>
<!-- 34&#45;&gt;40 -->
<g id="edge51" class="edge">
<title>34&#45;&gt;40</title>
<path fill="none" stroke="black" d="M544.5,-297.78C544.5,-286.11 544.5,-271.15 544.5,-257.38"/>
<polygon fill="black" stroke="black" points="548,-257.16 544.5,-247.16 541,-257.16 548,-257.16"/>
<text text-anchor="middle" x="557" y="-268.8" font-family="Courier,monospace" font-size="14.00">eps</text>
</g>
<!-- 1 -->
<g id="node4" class="node">
<title>1</title>
<ellipse fill="#a6cee3" stroke="black" cx="572.5" cy="-1389" rx="18" ry="18"/>
<text text-anchor="middle" x="572.5" y="-1385.3" font-family="Courier,monospace" font-size="14.00">1</text>
</g>
<!-- 43 -->
<g id="node5" class="node">
<title>43</title>
<ellipse fill="#a6cee3" stroke="black" cx="572.5" cy="-1298.5" rx="21.5" ry="21.5"/>
<text text-anchor="middle" x="572.5" y="-1294.8" font-family="Courier,monospace" font-size="14.00">43</text>
</g>
<!-- 1&#45;&gt;43 -->
<g id="edge4" class="edge">
<title>1&#45;&gt;43</title>
<path fill="none" stroke="black" d="M572.5,-1370.94C572.5,-1359.52 572.5,-1344.17 572.5,-1330.62"/>
<polygon fill="black" stroke="black" points="576,-1330.25 572.5,-1320.25 569,-1330.25 576,-1330.25"/>
<text text-anchor="middle" x="585" y="-1341.8" font-family="Courier,monospace" font-size="14.00">eps</text>
</g>
<!-- 26 -->
<g id="node6" class="node">
<title>26</title>
<ellipse fill="#a6cee3" stroke="black" cx="572.5" cy="-1204.5" rx="21.5" ry="21.5"/>
<text text-anchor="middle" x="572.5" y="-1200.8" font-family="Courier,monospace" font-size="14.00">26</text>
</g>
<!-- 43&#45;&gt;26 -->
<g id="edge5" class="edge">
<title>43&#45;&gt;26</title>
<path fill="none" stroke="black" d="M572.5,-1276.62C572.5,-1264.74 572.5,-1249.64 572.5,-1236.41"/>
<polygon fill="black" stroke="black" points="576,-1236.29 572.5,-1226.29 569,-1236.29 576,-1236.29"/>
<text text-anchor="middle" x="585" y="-1247.8" font-family="Courier,monospace" font-size="14.00">eps</text>
</g>
<!-- 44 -->
<g id="node46" class="node">
<title>44</title>
<ellipse fill="#a6cee3" stroke="black" cx="572.5" cy="-1102.5" rx="21.5" ry="21.5"/>
<text text-anchor="middle" x="572.5" y="-1098.8" font-family="Courier,monospace" font-size="14.00">44</text>
</g>
<!-- 26&#45;&gt;44 -->
<g id="edge55" class="edge">
<title>26&#45;&gt;44</title>
<path fill="none" stroke="black" d="M572.5,-1182.78C572.5,-1168.84 572.5,-1150.2 572.5,-1134.5"/>
<polygon fill="black" stroke="black" points="576,-1134.19 572.5,-1124.19 569,-1134.19 576,-1134.19"/>
<text text-anchor="middle" x="585" y="-1153.8" font-family="Courier,monospace" font-size="14.00">eps</text>
</g>
<!-- 2 -->
<g id="node7" class="node">
<title>2</title>
<ellipse fill="#a6cee3" stroke="black" cx="686.5" cy="-528" rx="18" ry="18"/>
<text text-anchor="middle" x="686.5" y="-524.3" font-family="Courier,monospace" font-size="14.00">2</text>
</g>
<!-- 22 -->
<g id="node8" class="node">
<title>22</title>
<ellipse fill="#a6cee3" stroke="black" cx="686.5" cy="-421.5" rx="25.5" ry="25.5"/>
<ellipse fill="none" stroke="black" cx="686.5" cy="-421.5" rx="29.5" ry="29.5"/>
<text text-anchor="middle" x="686.5" y="-417.8" font-family="Courier,monospace" font-size="14.00">22</text>
</g>
<!-- 2&#45;&gt;22 -->
<g id="edge6" class="edge">
<title>2&#45;&gt;22</title>
<path fill="none" stroke="black" d="M686.5,-509.74C686.5,-496.59 686.5,-477.96 686.5,-461.29"/>
<polygon fill="black" stroke="black" points="690,-461.23 686.5,-451.23 683,-461.23 690,-461.23"/>
<text text-anchor="middle" x="691" y="-472.8" font-family="Courier,monospace" font-size="14.00">a</text>
</g>
<!-- 48 -->
<g id="node9" class="node">
<title>48</title>
<ellipse fill="#a6cee3" stroke="black" cx="579.5" cy="-115.5" rx="21.5" ry="21.5"/>
<text text-anchor="middle" x="579.5" y="-111.8" font-family="Courier,monospace" font-size="14.00">48</text>
</g>
<!-- 22&#45;&gt;48 -->
<g id="edge7" class="edge">
<title>22&#45;&gt;48</title>
<path fill="none" stroke="black" d="M686.33,-391.73C684.98,-346.18 677.89,-255.69 644.5,-188 634.67,-168.07 617.61,-149.62 603.43,-136.46"/>
<polygon fill="black" stroke="black" points="605.7,-133.79 595.92,-129.71 601.02,-139 605.7,-133.79"/>
<text text-anchor="middle" x="686" y="-268.8" font-family="Courier,monospace" font-size="14.00">eps</text>
</g>
<!-- 16 -->
<g id="node10" class="node">
<title>16</title>
<ellipse fill="#a6cee3" stroke="black" cx="690.5" cy="-634.5" rx="25.5" ry="25.5"/>
<ellipse fill="none" stroke="black" cx="690.5" cy="-634.5" rx="29.5" ry="29.5"/>
<text text-anchor="middle" x="690.5" y="-630.8" font-family="Courier,monospace" font-size="14.00">16</text>
</g>
<!-- 22&#45;&gt;16 -->
<g id="edge8" class="edge">
<title>22&#45;&gt;16</title>
<path fill="none" stroke="black" d="M697.86,-448.8C703.81,-464.03 710.48,-483.74 713.5,-502 717.27,-524.8 716.74,-531.12 713.5,-554 711.49,-568.17 707.56,-583.35 703.51,-596.61"/>
<polygon fill="black" stroke="black" points="700.12,-595.73 700.42,-606.32 706.79,-597.85 700.12,-595.73"/>
<text text-anchor="middle" x="720" y="-524.3" font-family="Courier,monospace" font-size="14.00">b</text>
</g>
<!-- 45 -->
<g id="node29" class="node">
<title>45</title>
<ellipse fill="#a6cee3" stroke="black" cx="33.5" cy="-21.5" rx="21.5" ry="21.5"/>
<text text-anchor="middle" x="33.5" y="-17.8" font-family="Courier,monospace" font-size="14.00">45</text>
</g>
<!-- 48&#45;&gt;45 -->
<g id="edge37" class="edge">
<title>48&#45;&gt;45</title>
<path fill="none" stroke="black" d="M558.43,-110.95C474.66,-96.84 164.92,-44.64 64.88,-27.79"/>
<polygon fill="black" stroke="black" points="65.24,-24.3 54.8,-26.09 64.08,-31.2 65.24,-24.3"/>
<text text-anchor="middle" x="352" y="-64.8" font-family="Courier,monospace" font-size="14.00">eps</text>
</g>
<!-- 16&#45;&gt;2 -->
<g id="edge38" class="edge">
<title>16&#45;&gt;2</title>
<path fill="none" stroke="black" d="M689.41,-604.94C688.83,-589.77 688.12,-571.22 687.54,-556.25"/>
<polygon fill="black" stroke="black" points="691.03,-555.94 687.15,-546.08 684.04,-556.21 691.03,-555.94"/>
<text text-anchor="middle" x="693" y="-575.8" font-family="Courier,monospace" font-size="14.00">b</text>
</g>
<!-- 30 -->
<g id="node27" class="node">
<title>30</title>
<ellipse fill="#a6cee3" stroke="black" cx="339.5" cy="-528" rx="21.5" ry="21.5"/>
<text text-anchor="middle" x="339.5" y="-524.3" font-family="Courier,monospace" font-size="14.00">30</text>
</g>
<!-- 16&#45;&gt;30 -->
<g id="edge39" class="edge">
<title>16&#45;&gt;30</title>
<path fill="none" stroke="black" d="M662.7,-624.6C624.46,-612.43 553.42,-590.02 492.5,-572 450.19,-559.49 401.03,-545.83 370.1,-537.34"/>
<polygon fill="black" stroke="black" points="370.91,-533.93 360.34,-534.66 369.06,-540.68 370.91,-533.93"/>
<text text-anchor="middle" x="546" y="-575.8" font-family="Courier,monospace" font-size="14.00">a</text>
</g>
<!-- 3 -->
<g id="node11" class="node">
<title>3</title>
<ellipse fill="#a6cee3" stroke="black" cx="633.5" cy="-992.5" rx="18" ry="18"/>
<text text-anchor="middle" x="633.5" y="-988.8" font-family="Courier,monospace" font-size="14.00">3</text>
</g>
<!-- 4 -->
<g id="node12" class="node">
<title>4</title>
<ellipse fill="#a6cee3" stroke="black" cx="639.5" cy="-890.5" rx="18" ry="18"/>
<text text-anchor="middle" x="639.5" y="-886.8" font-family="Courier,monospace" font-size="14.00">4</text>
</g>
<!-- 3&#45;&gt;4 -->
<g id="edge9" class="edge">
<title>3&#45;&gt;4</title>
<path fill="none" stroke="black" d="M634.55,-974.08C635.46,-958.88 636.8,-936.57 637.85,-918.96"/>
<polygon fill="black" stroke="black" points="641.36,-918.91 638.47,-908.72 634.37,-918.49 641.36,-918.91"/>
<text text-anchor="middle" x="649" y="-933.8" font-family="Courier,monospace" font-size="14.00">eps</text>
</g>
<!-- 24 -->
<g id="node13" class="node">
<title>24</title>
<ellipse fill="#a6cee3" stroke="black" cx="636.5" cy="-711.5" rx="25.5" ry="25.5"/>
<ellipse fill="none" stroke="black" cx="636.5" cy="-711.5" rx="29.5" ry="29.5"/>
<text text-anchor="middle" x="636.5" y="-707.8" font-family="Courier,monospace" font-size="14.00">24</text>
</g>
<!-- 4&#45;&gt;24 -->
<g id="edge10" class="edge">
<title>4&#45;&gt;24</title>
<path fill="none" stroke="black" d="M639.21,-872.21C638.74,-844.38 637.8,-788.97 637.16,-751.32"/>
<polygon fill="black" stroke="black" points="640.66,-751.14 636.99,-741.2 633.66,-751.26 640.66,-751.14"/>
<text text-anchor="middle" x="643" y="-839.8" font-family="Courier,monospace" font-size="14.00">a</text>
</g>
<!-- 24&#45;&gt;34 -->
<g id="edge11" class="edge">
<title>24&#45;&gt;34</title>
<path fill="none" stroke="black" d="M632.71,-682.16C629.53,-655.86 625.5,-615.61 625.5,-580.5 625.5,-580.5 625.5,-580.5 625.5,-420.5 625.5,-385.08 594.44,-355.18 570.78,-337.55"/>
<polygon fill="black" stroke="black" points="572.65,-334.58 562.48,-331.62 568.58,-340.28 572.65,-334.58"/>
<text text-anchor="middle" x="638" y="-524.3" font-family="Courier,monospace" font-size="14.00">eps</text>
</g>
<!-- 5 -->
<g id="node14" class="node">
<title>5</title>
<ellipse fill="#a6cee3" stroke="black" cx="401.5" cy="-1204.5" rx="18" ry="18"/>
<text text-anchor="middle" x="401.5" y="-1200.8" font-family="Courier,monospace" font-size="14.00">5</text>
</g>
<!-- 38 -->
<g id="node15" class="node">
<title>38</title>
<ellipse fill="#a6cee3" stroke="black" cx="459.5" cy="-1102.5" rx="25.5" ry="25.5"/>
<ellipse fill="none" stroke="black" cx="459.5" cy="-1102.5" rx="29.5" ry="29.5"/>
<text text-anchor="middle" x="459.5" y="-1098.8" font-family="Courier,monospace" font-size="14.00">38</text>
</g>
<!-- 5&#45;&gt;38 -->
<g id="edge12" class="edge">
<title>5&#45;&gt;38</title>
<path fill="none" stroke="black" d="M410.31,-1188.31C418.13,-1174.82 429.86,-1154.61 439.89,-1137.31"/>
<polygon fill="black" stroke="black" points="442.97,-1138.98 444.96,-1128.57 436.91,-1135.47 442.97,-1138.98"/>
<text text-anchor="middle" x="437" y="-1153.8" font-family="Courier,monospace" font-size="14.00">a</text>
</g>
<!-- 12 -->
<g id="node16" class="node">
<title>12</title>
<ellipse fill="#a6cee3" stroke="black" cx="396.5" cy="-788.5" rx="21.5" ry="21.5"/>
<text text-anchor="middle" x="396.5" y="-784.8" font-family="Courier,monospace" font-size="14.00">12</text>
</g>
<!-- 5&#45;&gt;12 -->
<g id="edge13" class="edge">
<title>5&#45;&gt;12</title>
<path fill="none" stroke="black" d="M401.29,-1186.5C400.53,-1123.45 397.86,-902.4 396.87,-820.41"/>
<polygon fill="black" stroke="black" points="400.37,-820.19 396.75,-810.23 393.37,-820.27 400.37,-820.19"/>
<text text-anchor="middle" x="404" y="-988.8" font-family="Courier,monospace" font-size="14.00">b</text>
</g>
<!-- 32 -->
<g id="node17" class="node">
<title>32</title>
<ellipse fill="#a6cee3" stroke="black" cx="262.5" cy="-788.5" rx="21.5" ry="21.5"/>
<text text-anchor="middle" x="262.5" y="-784.8" font-family="Courier,monospace" font-size="14.00">32</text>
</g>
<!-- 5&#45;&gt;32 -->
<g id="edge14" class="edge">
<title>5&#45;&gt;32</title>
<path fill="none" stroke="black" d="M383.7,-1200.35C343.97,-1192.18 251.5,-1166.41 251.5,-1103.5 251.5,-1103.5 251.5,-1103.5 251.5,-889.5 251.5,-865.96 254.55,-839.49 257.44,-819.7"/>
<polygon fill="black" stroke="black" points="260.91,-820.14 258.96,-809.73 253.99,-819.09 260.91,-820.14"/>
<text text-anchor="middle" x="264" y="-988.8" font-family="Courier,monospace" font-size="14.00">eps</text>
</g>
<!-- 38&#45;&gt;38 -->
<g id="edge15" class="edge">
<title>38&#45;&gt;38</title>
<path fill="none" stroke="black" d="M487.31,-1112.59C498.06,-1113.03 507,-1109.67 507,-1102.5 507,-1097.79 503.15,-1094.73 497.47,-1093.3"/>
<polygon fill="black" stroke="black" points="497.58,-1089.8 487.31,-1092.41 496.97,-1096.77 497.58,-1089.8"/>
<text text-anchor="middle" x="519.5" y="-1098.8" font-family="Courier,monospace" font-size="14.00">eps</text>
</g>
<!-- 49 -->
<g id="node18" class="node">
<title>49</title>
<ellipse fill="#a6cee3" stroke="black" cx="572.5" cy="-992.5" rx="21.5" ry="21.5"/>
<text text-anchor="middle" x="572.5" y="-988.8" font-family="Courier,monospace" font-size="14.00">49</text>
</g>
<!-- 38&#45;&gt;49 -->
<g id="edge16" class="edge">
<title>38&#45;&gt;49</title>
<path fill="none" stroke="black" d="M480.49,-1081.44C500.3,-1062.51 529.9,-1034.22 550.14,-1014.87"/>
<polygon fill="black" stroke="black" points="552.59,-1017.37 557.4,-1007.93 547.76,-1012.31 552.59,-1017.37"/>
<text text-anchor="middle" x="527" y="-1043.8" font-family="Courier,monospace" font-size="14.00">b</text>
</g>
<!-- 9 -->
<g id="node19" class="node">
<title>9</title>
<ellipse fill="#a6cee3" stroke="black" cx="425.5" cy="-634.5" rx="18" ry="18"/>
<text text-anchor="middle" x="425.5" y="-630.8" font-family="Courier,monospace" font-size="14.00">9</text>
</g>
<!-- 12&#45;&gt;9 -->
<g id="edge17" class="edge">
<title>12&#45;&gt;9</title>
<path fill="none" stroke="black" d="M395.97,-766.94C395.89,-745.42 397.14,-710.83 404.5,-682 406.43,-674.45 409.51,-666.59 412.73,-659.54"/>
<polygon fill="black" stroke="black" points="415.89,-661.04 417.1,-650.51 409.59,-657.98 415.89,-661.04"/>
<text text-anchor="middle" x="417" y="-707.8" font-family="Courier,monospace" font-size="14.00">eps</text>
</g>
<!-- 32&#45;&gt;32 -->
<g id="edge18" class="edge">
<title>32&#45;&gt;32</title>
<path fill="none" stroke="black" d="M282.01,-798.21C292.47,-799.86 302,-796.62 302,-788.5 302,-783.17 297.9,-779.95 292.12,-778.82"/>
<polygon fill="black" stroke="black" points="292.02,-775.32 282.01,-778.79 292,-782.32 292.02,-775.32"/>
<text text-anchor="middle" x="306.5" y="-784.8" font-family="Courier,monospace" font-size="14.00">a</text>
</g>
<!-- 49&#45;&gt;0 -->
<g id="edge64" class="edge">
<title>49&#45;&gt;0</title>
<path fill="none" stroke="black" d="M577.29,-971.25C578.98,-963.14 580.67,-953.68 581.5,-945 582.14,-938.36 581.93,-936.65 581.5,-930 571.26,-769.91 572.34,-728.13 535.5,-572 534.74,-568.77 533.82,-565.44 532.82,-562.13"/>
<polygon fill="black" stroke="black" points="536.08,-560.82 529.65,-552.4 529.42,-562.99 536.08,-560.82"/>
<text text-anchor="middle" x="586" y="-784.8" font-family="Courier,monospace" font-size="14.00">eps</text>
</g>
<!-- 46 -->
<g id="node49" class="node">
<title>46</title>
<ellipse fill="#a6cee3" stroke="black" cx="527.5" cy="-890.5" rx="21.5" ry="21.5"/>
<text text-anchor="middle" x="527.5" y="-886.8" font-family="Courier,monospace" font-size="14.00">46</text>
</g>
<!-- 49&#45;&gt;46 -->
<g id="edge65" class="edge">
<title>49&#45;&gt;46</title>
<path fill="none" stroke="black" d="M559.07,-975.16C552.63,-966.62 545.3,-955.74 540.5,-945 537.24,-937.72 534.73,-929.5 532.82,-921.73"/>
<polygon fill="black" stroke="black" points="536.22,-920.9 530.64,-911.89 529.38,-922.41 536.22,-920.9"/>
<text text-anchor="middle" x="545" y="-933.8" font-family="Courier,monospace" font-size="14.00">a</text>
</g>
<!-- 9&#45;&gt;0 -->
<g id="edge22" class="edge">
<title>9&#45;&gt;0</title>
<path fill="none" stroke="black" d="M437.15,-620.69C451.82,-604.55 477.41,-576.4 496.37,-555.54"/>
<polygon fill="black" stroke="black" points="499.15,-557.69 503.28,-547.94 493.97,-552.98 499.15,-557.69"/>
<text text-anchor="middle" x="484" y="-575.8" font-family="Courier,monospace" font-size="14.00">b</text>
</g>
<!-- 6 -->
<g id="node20" class="node">
<title>6</title>
<ellipse fill="#a6cee3" stroke="black" cx="380.5" cy="-1777.5" rx="18" ry="18"/>
<text text-anchor="middle" x="380.5" y="-1773.8" font-family="Courier,monospace" font-size="14.00">6</text>
</g>
<!-- 41 -->
<g id="node21" class="node">
<title>41</title>
<ellipse fill="#a6cee3" stroke="black" cx="380.5" cy="-1675.5" rx="25.5" ry="25.5"/>
<ellipse fill="none" stroke="black" cx="380.5" cy="-1675.5" rx="29.5" ry="29.5"/>
<text text-anchor="middle" x="380.5" y="-1671.8" font-family="Courier,monospace" font-size="14.00">41</text>
</g>
<!-- 6&#45;&gt;41 -->
<g id="edge19" class="edge">
<title>6&#45;&gt;41</title>
<path fill="none" stroke="black" d="M380.5,-1759.08C380.5,-1746.99 380.5,-1730.39 380.5,-1715.24"/>
<polygon fill="black" stroke="black" points="384,-1715.06 380.5,-1705.06 377,-1715.06 384,-1715.06"/>
<text text-anchor="middle" x="385" y="-1726.8" font-family="Courier,monospace" font-size="14.00">a</text>
</g>
<!-- 20 -->
<g id="node22" class="node">
<title>20</title>
<ellipse fill="#a6cee3" stroke="black" cx="342.5" cy="-1573.5" rx="21.5" ry="21.5"/>
<text text-anchor="middle" x="342.5" y="-1569.8" font-family="Courier,monospace" font-size="14.00">20</text>
</g>
<!-- 41&#45;&gt;20 -->
<g id="edge20" class="edge">
<title>41&#45;&gt;20</title>
<path fill="none" stroke="black" d="M369.43,-1648.03C366.78,-1641.5 363.99,-1634.52 361.5,-1628 358.53,-1620.23 355.46,-1611.77 352.67,-1603.92"/>
<polygon fill="black" stroke="black" points="355.94,-1602.67 349.32,-1594.4 349.34,-1604.99 355.94,-1602.67"/>
<text text-anchor="middle" x="374" y="-1616.8" font-family="Courier,monospace" font-size="14.00">eps</text>
</g>
<!-- 33 -->
<g id="node40" class="node">
<title>33</title>
<ellipse fill="#a6cee3" stroke="black" cx="375.5" cy="-1479.5" rx="21.5" ry="21.5"/>
<text text-anchor="middle" x="375.5" y="-1475.8" font-family="Courier,monospace" font-size="14.00">33</text>
</g>
<!-- 20&#45;&gt;33 -->
<g id="edge45" class="edge">
<title>20&#45;&gt;33</title>
<path fill="none" stroke="black" d="M349.5,-1552.67C353.07,-1542.58 357.5,-1530.13 361.5,-1519 362.61,-1515.92 363.77,-1512.71 364.93,-1509.5"/>
<polygon fill="black" stroke="black" points="368.23,-1510.67 368.35,-1500.08 361.65,-1508.28 368.23,-1510.67"/>
<text text-anchor="middle" x="374" y="-1522.8" font-family="Courier,monospace" font-size="14.00">eps</text>
</g>
<!-- 7 -->
<g id="node23" class="node">
<title>7</title>
<ellipse fill="#a6cee3" stroke="black" cx="458.5" cy="-788.5" rx="18" ry="18"/>
<text text-anchor="middle" x="458.5" y="-784.8" font-family="Courier,monospace" font-size="14.00">7</text>
</g>
<!-- 7&#45;&gt;9 -->
<g id="edge21" class="edge">
<title>7&#45;&gt;9</title>
<path fill="none" stroke="black" d="M454.84,-770.65C449.14,-744.4 438.09,-693.51 431.3,-662.22"/>
<polygon fill="black" stroke="black" points="434.72,-661.45 429.17,-652.42 427.88,-662.94 434.72,-661.45"/>
<text text-anchor="middle" x="461" y="-707.8" font-family="Courier,monospace" font-size="14.00">eps</text>
</g>
<!-- 8 -->
<g id="node24" class="node">
<title>8</title>
<ellipse fill="#a6cee3" stroke="black" cx="407.5" cy="-1389" rx="18" ry="18"/>
<text text-anchor="middle" x="407.5" y="-1385.3" font-family="Courier,monospace" font-size="14.00">8</text>
</g>
<!-- 8&#45;&gt;38 -->
<g id="edge23" class="edge">
<title>8&#45;&gt;38</title>
<path fill="none" stroke="black" d="M415.85,-1372.84C422.85,-1359.38 432.49,-1338.96 437.5,-1320 453.55,-1259.26 458.03,-1186.08 459.2,-1142.25"/>
<polygon fill="black" stroke="black" points="462.71,-1142.11 459.43,-1132.03 455.71,-1141.95 462.71,-1142.11"/>
<text text-anchor="middle" x="465" y="-1247.8" font-family="Courier,monospace" font-size="14.00">eps</text>
</g>
<!-- 47 -->
<g id="node25" class="node">
<title>47</title>
<ellipse fill="#a6cee3" stroke="black" cx="407.5" cy="-1298.5" rx="21.5" ry="21.5"/>
<text text-anchor="middle" x="407.5" y="-1294.8" font-family="Courier,monospace" font-size="14.00">47</text>
</g>
<!-- 8&#45;&gt;47 -->
<g id="edge24" class="edge">
<title>8&#45;&gt;47</title>
<path fill="none" stroke="black" d="M407.5,-1370.94C407.5,-1359.52 407.5,-1344.17 407.5,-1330.62"/>
<polygon fill="black" stroke="black" points="411,-1330.25 407.5,-1320.25 404,-1330.25 411,-1330.25"/>
<text text-anchor="middle" x="412" y="-1341.8" font-family="Courier,monospace" font-size="14.00">a</text>
</g>
<!-- 47&#45;&gt;5 -->
<g id="edge25" class="edge">
<title>47&#45;&gt;5</title>
<path fill="none" stroke="black" d="M406.14,-1276.62C405.29,-1263.61 404.19,-1246.73 403.27,-1232.68"/>
<polygon fill="black" stroke="black" points="406.76,-1232.35 402.62,-1222.6 399.77,-1232.81 406.76,-1232.35"/>
<text text-anchor="middle" x="410" y="-1247.8" font-family="Courier,monospace" font-size="14.00">b</text>
</g>
<!-- 10 -->
<g id="node26" class="node">
<title>10</title>
<ellipse fill="#a6cee3" stroke="black" cx="132.5" cy="-634.5" rx="25.5" ry="25.5"/>
<ellipse fill="none" stroke="black" cx="132.5" cy="-634.5" rx="29.5" ry="29.5"/>
<text text-anchor="middle" x="132.5" y="-630.8" font-family="Courier,monospace" font-size="14.00">10</text>
</g>
<!-- 10&#45;&gt;30 -->
<g id="edge26" class="edge">
<title>10&#45;&gt;30</title>
<path fill="none" stroke="black" d="M158.72,-620.27C197.9,-600.49 271.4,-563.38 311.56,-543.11"/>
<polygon fill="black" stroke="black" points="313.19,-546.2 320.54,-538.57 310.04,-539.95 313.19,-546.2"/>
<text text-anchor="middle" x="261" y="-575.8" font-family="Courier,monospace" font-size="14.00">eps</text>
</g>
<!-- 30&#45;&gt;39 -->
<g id="edge27" class="edge">
<title>30&#45;&gt;39</title>
<path fill="none" stroke="black" d="M357.85,-516.4C389.83,-497.94 455.92,-459.78 493.26,-438.22"/>
<polygon fill="black" stroke="black" points="495.19,-441.15 502.1,-433.12 491.69,-435.09 495.19,-441.15"/>
<text text-anchor="middle" x="448" y="-472.8" font-family="Courier,monospace" font-size="14.00">eps</text>
</g>
<!-- 11 -->
<g id="node28" class="node">
<title>11</title>
<ellipse fill="#a6cee3" stroke="black" cx="21.5" cy="-788.5" rx="21.5" ry="21.5"/>
<text text-anchor="middle" x="21.5" y="-784.8" font-family="Courier,monospace" font-size="14.00">11</text>
</g>
<!-- 11&#45;&gt;10 -->
<g id="edge28" class="edge">
<title>11&#45;&gt;10</title>
<path fill="none" stroke="black" d="M33.8,-770.65C51.96,-745.78 86.28,-698.8 109.27,-667.31"/>
<polygon fill="black" stroke="black" points="112.36,-669.02 115.43,-658.88 106.71,-664.89 112.36,-669.02"/>
<text text-anchor="middle" x="102" y="-707.8" font-family="Courier,monospace" font-size="14.00">a</text>
</g>
<!-- 11&#45;&gt;45 -->
<g id="edge29" class="edge">
<title>11&#45;&gt;45</title>
<path fill="none" stroke="black" d="M20.61,-766.85C19.43,-737.62 17.5,-682.49 17.5,-635.5 17.5,-635.5 17.5,-635.5 17.5,-114.5 17.5,-93.49 21.6,-70.18 25.65,-52.28"/>
<polygon fill="black" stroke="black" points="29.08,-52.97 27.99,-42.43 22.27,-51.34 29.08,-52.97"/>
<text text-anchor="middle" x="30" y="-362.8" font-family="Courier,monospace" font-size="14.00">eps</text>
</g>
<!-- 45&#45;&gt;45 -->
<g id="edge30" class="edge">
<title>45&#45;&gt;45</title>
<path fill="none" stroke="black" d="M53.42,-29.82C63.72,-31.1 73,-28.33 73,-21.5 73,-17.13 69.19,-14.42 63.74,-13.37"/>
<polygon fill="black" stroke="black" points="63.48,-9.86 53.42,-13.18 63.35,-16.86 63.48,-9.86"/>
<text text-anchor="middle" x="85.5" y="-17.8" font-family="Courier,monospace" font-size="14.00">eps</text>
</g>
<!-- 13 -->
<g id="node30" class="node">
<title>13</title>
<ellipse fill="#a6cee3" stroke="black" cx="193.5" cy="-992.5" rx="21.5" ry="21.5"/>
<text text-anchor="middle" x="193.5" y="-988.8" font-family="Courier,monospace" font-size="14.00">13</text>
</g>
<!-- 28 -->
<g id="node31" class="node">
<title>28</title>
<ellipse fill="#a6cee3" stroke="black" cx="197.5" cy="-890.5" rx="21.5" ry="21.5"/>
<text text-anchor="middle" x="197.5" y="-886.8" font-family="Courier,monospace" font-size="14.00">28</text>
</g>
<!-- 13&#45;&gt;28 -->
<g id="edge31" class="edge">
<title>13&#45;&gt;28</title>
<path fill="none" stroke="black" d="M194.33,-970.78C194.89,-956.84 195.63,-938.2 196.26,-922.5"/>
<polygon fill="black" stroke="black" points="199.77,-922.33 196.67,-912.19 192.78,-922.05 199.77,-922.33"/>
<text text-anchor="middle" x="209" y="-933.8" font-family="Courier,monospace" font-size="14.00">eps</text>
</g>
<!-- 37 -->
<g id="node32" class="node">
<title>37</title>
<ellipse fill="#a6cee3" stroke="black" cx="201.5" cy="-788.5" rx="21.5" ry="21.5"/>
<text text-anchor="middle" x="201.5" y="-784.8" font-family="Courier,monospace" font-size="14.00">37</text>
</g>
<!-- 28&#45;&gt;37 -->
<g id="edge32" class="edge">
<title>28&#45;&gt;37</title>
<path fill="none" stroke="black" d="M198.33,-868.78C198.89,-854.84 199.63,-836.2 200.26,-820.5"/>
<polygon fill="black" stroke="black" points="203.77,-820.33 200.67,-810.19 196.78,-820.05 203.77,-820.33"/>
<text text-anchor="middle" x="205" y="-839.8" font-family="Courier,monospace" font-size="14.00">a</text>
</g>
<!-- 37&#45;&gt;9 -->
<g id="edge58" class="edge">
<title>37&#45;&gt;9</title>
<path fill="none" stroke="black" d="M212.56,-769.65C227.83,-746.37 257.51,-705.82 292.5,-682 325.13,-659.79 369.48,-647.1 397.8,-640.76"/>
<polygon fill="black" stroke="black" points="398.76,-644.13 407.81,-638.63 397.3,-637.28 398.76,-644.13"/>
<text text-anchor="middle" x="305" y="-707.8" font-family="Courier,monospace" font-size="14.00">eps</text>
</g>
<!-- 14 -->
<g id="node33" class="node">
<title>14</title>
<ellipse fill="#a6cee3" stroke="black" cx="316.5" cy="-992.5" rx="21.5" ry="21.5"/>
<text text-anchor="middle" x="316.5" y="-988.8" font-family="Courier,monospace" font-size="14.00">14</text>
</g>
<!-- 29 -->
<g id="node34" class="node">
<title>29</title>
<ellipse fill="#a6cee3" stroke="black" cx="301.5" cy="-890.5" rx="21.5" ry="21.5"/>
<text text-anchor="middle" x="301.5" y="-886.8" font-family="Courier,monospace" font-size="14.00">29</text>
</g>
<!-- 14&#45;&gt;29 -->
<g id="edge33" class="edge">
<title>14&#45;&gt;29</title>
<path fill="none" stroke="black" d="M313.39,-970.78C311.29,-956.74 308.47,-937.95 306.1,-922.19"/>
<polygon fill="black" stroke="black" points="309.5,-921.22 304.55,-911.85 302.57,-922.26 309.5,-921.22"/>
<text text-anchor="middle" x="314" y="-933.8" font-family="Courier,monospace" font-size="14.00">a</text>
</g>
<!-- 29&#45;&gt;12 -->
<g id="edge34" class="edge">
<title>29&#45;&gt;12</title>
<path fill="none" stroke="black" d="M301.83,-868.79C302.99,-857.98 306.04,-845.15 313.5,-836 325.82,-820.89 336.43,-827.42 353.5,-818 359.26,-814.82 365.26,-811.12 370.89,-807.45"/>
<polygon fill="black" stroke="black" points="372.96,-810.28 379.33,-801.81 369.07,-804.46 372.96,-810.28"/>
<text text-anchor="middle" x="326" y="-839.8" font-family="Courier,monospace" font-size="14.00">eps</text>
</g>
<!-- 29&#45;&gt;30 -->
<g id="edge35" class="edge">
<title>29&#45;&gt;30</title>
<path fill="none" stroke="black" d="M298.48,-868.98C297.8,-858.72 298.28,-846.32 302.5,-836 306.66,-825.81 315.08,-828.08 319.5,-818 357.82,-730.55 350.3,-613.87 343.86,-559.4"/>
<polygon fill="black" stroke="black" points="347.32,-558.85 342.6,-549.37 340.37,-559.73 347.32,-558.85"/>
<text text-anchor="middle" x="353" y="-707.8" font-family="Courier,monospace" font-size="14.00">a</text>
</g>
<!-- 15 -->
<g id="node35" class="node">
<title>15</title>
<ellipse fill="#a6cee3" stroke="black" cx="613.5" cy="-217.5" rx="21.5" ry="21.5"/>
<text text-anchor="middle" x="613.5" y="-213.8" font-family="Courier,monospace" font-size="14.00">15</text>
</g>
<!-- 15&#45;&gt;48 -->
<g id="edge36" class="edge">
<title>15&#45;&gt;48</title>
<path fill="none" stroke="black" d="M606.78,-196.74C601.85,-182.23 595.06,-162.26 589.49,-145.87"/>
<polygon fill="black" stroke="black" points="592.74,-144.56 586.2,-136.22 586.11,-146.81 592.74,-144.56"/>
<text text-anchor="middle" x="602" y="-158.8" font-family="Courier,monospace" font-size="14.00">b</text>
</g>
<!-- 17 -->
<g id="node36" class="node">
<title>17</title>
<ellipse fill="#a6cee3" stroke="black" cx="281.5" cy="-1573.5" rx="21.5" ry="21.5"/>
<text text-anchor="middle" x="281.5" y="-1569.8" font-family="Courier,monospace" font-size="14.00">17</text>
</g>
<!-- 42 -->
<g id="node37" class="node">
<title>42</title>
<ellipse fill="#a6cee3" stroke="black" cx="281.5" cy="-1479.5" rx="21.5" ry="21.5"/>
<text text-anchor="middle" x="281.5" y="-1475.8" font-family="Courier,monospace" font-size="14.00">42</text>
</g>
<!-- 17&#45;&gt;42 -->
<g id="edge40" class="edge">
<title>17&#45;&gt;42</title>
<path fill="none" stroke="black" d="M281.5,-1551.62C281.5,-1539.74 281.5,-1524.64 281.5,-1511.41"/>
<polygon fill="black" stroke="black" points="285,-1511.29 281.5,-1501.29 278,-1511.29 285,-1511.29"/>
<text text-anchor="middle" x="294" y="-1522.8" font-family="Courier,monospace" font-size="14.00">eps</text>
</g>
<!-- 42&#45;&gt;8 -->
<g id="edge41" class="edge">
<title>42&#45;&gt;8</title>
<path fill="none" stroke="black" d="M298.76,-1466.38C321.09,-1450.7 360.05,-1423.33 384.77,-1405.96"/>
<polygon fill="black" stroke="black" points="387.01,-1408.67 393.18,-1400.06 382.98,-1402.94 387.01,-1408.67"/>
<text text-anchor="middle" x="361" y="-1428.8" font-family="Courier,monospace" font-size="14.00">a</text>
</g>
<!-- 18 -->
<g id="node38" class="node">
<title>18</title>
<ellipse fill="#a6cee3" stroke="black" cx="362.5" cy="-890.5" rx="21.5" ry="21.5"/>
<text text-anchor="middle" x="362.5" y="-886.8" font-family="Courier,monospace" font-size="14.00">18</text>
</g>
<!-- 18&#45;&gt;12 -->
<g id="edge42" class="edge">
<title>18&#45;&gt;12</title>
<path fill="none" stroke="black" d="M369.22,-869.74C374.15,-855.23 380.94,-835.26 386.51,-818.87"/>
<polygon fill="black" stroke="black" points="389.89,-819.81 389.8,-809.22 383.26,-817.56 389.89,-819.81"/>
<text text-anchor="middle" x="386" y="-839.8" font-family="Courier,monospace" font-size="14.00">a</text>
</g>
<!-- 18&#45;&gt;32 -->
<g id="edge43" class="edge">
<title>18&#45;&gt;32</title>
<path fill="none" stroke="black" d="M356.77,-869.57C352.92,-858.74 346.97,-845.63 338.5,-836 325.64,-821.38 307.05,-809.9 291.48,-802"/>
<polygon fill="black" stroke="black" points="292.77,-798.74 282.25,-797.55 289.73,-805.05 292.77,-798.74"/>
<text text-anchor="middle" x="353" y="-839.8" font-family="Courier,monospace" font-size="14.00">b</text>
</g>
<!-- 19 -->
<g id="node39" class="node">
<title>19</title>
<ellipse fill="#a6cee3" stroke="black" cx="132.5" cy="-788.5" rx="25.5" ry="25.5"/>
<ellipse fill="none" stroke="black" cx="132.5" cy="-788.5" rx="29.5" ry="29.5"/>
<text text-anchor="middle" x="132.5" y="-784.8" font-family="Courier,monospace" font-size="14.00">19</text>
</g>
<!-- 19&#45;&gt;10 -->
<g id="edge44" class="edge">
<title>19&#45;&gt;10</title>
<path fill="none" stroke="black" d="M132.5,-758.91C132.5,-735 132.5,-700.65 132.5,-674.26"/>
<polygon fill="black" stroke="black" points="136,-674.22 132.5,-664.22 129,-674.22 136,-674.22"/>
<text text-anchor="middle" x="145" y="-707.8" font-family="Courier,monospace" font-size="14.00">eps</text>
</g>
<!-- 33&#45;&gt;41 -->
<g id="edge46" class="edge">
<title>33&#45;&gt;41</title>
<path fill="none" stroke="black" d="M382.28,-1500.25C384.02,-1506.21 385.63,-1512.8 386.5,-1519 392.05,-1558.66 389.16,-1604.53 385.75,-1636.12"/>
<polygon fill="black" stroke="black" points="382.25,-1635.92 384.58,-1646.26 389.2,-1636.72 382.25,-1635.92"/>
<text text-anchor="middle" x="403" y="-1569.8" font-family="Courier,monospace" font-size="14.00">eps</text>
</g>
<!-- 21 -->
<g id="node41" class="node">
<title>21</title>
<ellipse fill="#a6cee3" stroke="black" cx="346.5" cy="-1298.5" rx="21.5" ry="21.5"/>
<text text-anchor="middle" x="346.5" y="-1294.8" font-family="Courier,monospace" font-size="14.00">21</text>
</g>
<!-- 21&#45;&gt;5 -->
<g id="edge47" class="edge">
<title>21&#45;&gt;5</title>
<path fill="none" stroke="black" d="M357.1,-1279.76C365.72,-1265.36 377.94,-1244.92 387.38,-1229.13"/>
<polygon fill="black" stroke="black" points="390.44,-1230.83 392.56,-1220.45 384.43,-1227.23 390.44,-1230.83"/>
<text text-anchor="middle" x="382" y="-1247.8" font-family="Courier,monospace" font-size="14.00">a</text>
</g>
<!-- 23 -->
<g id="node42" class="node">
<title>23</title>
<ellipse fill="#a6cee3" stroke="black" cx="147.5" cy="-1675.5" rx="21.5" ry="21.5"/>
<text text-anchor="middle" x="147.5" y="-1671.8" font-family="Courier,monospace" font-size="14.00">23</text>
</g>
<!-- 36 -->
<g id="node43" class="node">
<title>36</title>
<ellipse fill="#a6cee3" stroke="black" cx="147.5" cy="-1573.5" rx="21.5" ry="21.5"/>
<text text-anchor="middle" x="147.5" y="-1569.8" font-family="Courier,monospace" font-size="14.00">36</text>
</g>
<!-- 23&#45;&gt;36 -->
<g id="edge48" class="edge">
<title>23&#45;&gt;36</title>
<path fill="none" stroke="black" d="M147.5,-1653.78C147.5,-1639.84 147.5,-1621.2 147.5,-1605.5"/>
<polygon fill="black" stroke="black" points="151,-1605.19 147.5,-1595.19 144,-1605.19 151,-1605.19"/>
<text text-anchor="middle" x="160" y="-1616.8" font-family="Courier,monospace" font-size="14.00">eps</text>
</g>
<!-- 36&#45;&gt;30 -->
<g id="edge49" class="edge">
<title>36&#45;&gt;30</title>
<path fill="none" stroke="black" d="M129.83,-1561.15C108.22,-1545.73 74.5,-1515.98 74.5,-1480.5 74.5,-1480.5 74.5,-1480.5 74.5,-633.5 74.5,-583.76 238.15,-547.66 308.24,-534.48"/>
<polygon fill="black" stroke="black" points="309.06,-537.89 318.26,-532.63 307.79,-531.01 309.06,-537.89"/>
<text text-anchor="middle" x="79" y="-1098.8" font-family="Courier,monospace" font-size="14.00">b</text>
</g>
<!-- 36&#45;&gt;42 -->
<g id="edge50" class="edge">
<title>36&#45;&gt;42</title>
<path fill="none" stroke="black" d="M165.02,-1560.47C188.09,-1544.63 228.85,-1516.65 255.52,-1498.34"/>
<polygon fill="black" stroke="black" points="257.71,-1501.08 263.98,-1492.53 253.75,-1495.31 257.71,-1501.08"/>
<text text-anchor="middle" x="236" y="-1522.8" font-family="Courier,monospace" font-size="14.00">eps</text>
</g>
<!-- 40&#45;&gt;48 -->
<g id="edge62" class="edge">
<title>40&#45;&gt;48</title>
<path fill="none" stroke="black" d="M552.37,-189.07C555.6,-178.36 559.51,-166.04 563.5,-155 564.69,-151.7 566.01,-148.27 567.35,-144.88"/>
<polygon fill="black" stroke="black" points="570.62,-146.13 571.17,-135.55 564.14,-143.48 570.62,-146.13"/>
<text text-anchor="middle" x="576" y="-158.8" font-family="Courier,monospace" font-size="14.00">eps</text>
</g>
<!-- 25 -->
<g id="node45" class="node">
<title>25</title>
<ellipse fill="#a6cee3" stroke="black" cx="450.5" cy="-992.5" rx="21.5" ry="21.5"/>
<text text-anchor="middle" x="450.5" y="-988.8" font-family="Courier,monospace" font-size="14.00">25</text>
</g>
<!-- 25&#45;&gt;4 -->
<g id="edge52" class="edge">
<title>25&#45;&gt;4</title>
<path fill="none" stroke="black" d="M464.48,-975.97C469.45,-971.22 475.34,-966.37 481.5,-963 508.92,-947.98 520.67,-957.1 549.5,-945 573.62,-934.87 599.06,-919.22 616.72,-907.46"/>
<polygon fill="black" stroke="black" points="618.88,-910.22 625.2,-901.72 614.95,-904.43 618.88,-910.22"/>
<text text-anchor="middle" x="582" y="-933.8" font-family="Courier,monospace" font-size="14.00">b</text>
</g>
<!-- 25&#45;&gt;7 -->
<g id="edge53" class="edge">
<title>25&#45;&gt;7</title>
<path fill="none" stroke="black" d="M451.33,-970.64C452.78,-933.91 455.8,-857.69 457.42,-816.81"/>
<polygon fill="black" stroke="black" points="460.92,-816.88 457.82,-806.75 453.92,-816.61 460.92,-816.88"/>
<text text-anchor="middle" x="468" y="-886.8" font-family="Courier,monospace" font-size="14.00">eps</text>
</g>
<!-- 25&#45;&gt;18 -->
<g id="edge54" class="edge">
<title>25&#45;&gt;18</title>
<path fill="none" stroke="black" d="M436.75,-975.88C422.37,-959.53 399.63,-933.69 383.1,-914.91"/>
<polygon fill="black" stroke="black" points="385.68,-912.54 376.44,-907.35 380.42,-917.16 385.68,-912.54"/>
<text text-anchor="middle" x="414" y="-933.8" font-family="Courier,monospace" font-size="14.00">a</text>
</g>
<!-- 44&#45;&gt;49 -->
<g id="edge56" class="edge">
<title>44&#45;&gt;49</title>
<path fill="none" stroke="black" d="M572.5,-1080.93C572.5,-1064.97 572.5,-1042.58 572.5,-1024.46"/>
<polygon fill="black" stroke="black" points="576,-1024.36 572.5,-1014.36 569,-1024.36 576,-1024.36"/>
<text text-anchor="middle" x="585" y="-1043.8" font-family="Courier,monospace" font-size="14.00">eps</text>
</g>
<!-- 27 -->
<g id="node47" class="node">
<title>27</title>
<ellipse fill="#a6cee3" stroke="black" cx="147.5" cy="-1777.5" rx="21.5" ry="21.5"/>
<text text-anchor="middle" x="147.5" y="-1773.8" font-family="Courier,monospace" font-size="14.00">27</text>
</g>
<!-- 27&#45;&gt;23 -->
<g id="edge57" class="edge">
<title>27&#45;&gt;23</title>
<path fill="none" stroke="black" d="M147.5,-1755.78C147.5,-1741.84 147.5,-1723.2 147.5,-1707.5"/>
<polygon fill="black" stroke="black" points="151,-1707.19 147.5,-1697.19 144,-1707.19 151,-1707.19"/>
<text text-anchor="middle" x="160" y="-1726.8" font-family="Courier,monospace" font-size="14.00">eps</text>
</g>
<!-- 31 -->
<g id="node48" class="node">
<title>31</title>
<ellipse fill="#a6cee3" stroke="black" cx="511.5" cy="-992.5" rx="21.5" ry="21.5"/>
<text text-anchor="middle" x="511.5" y="-988.8" font-family="Courier,monospace" font-size="14.00">31</text>
</g>
<!-- 31&#45;&gt;46 -->
<g id="edge59" class="edge">
<title>31&#45;&gt;46</title>
<path fill="none" stroke="black" d="M500,-974.32C493.16,-961.86 486.82,-944.7 492.5,-930 495.04,-923.43 499.28,-917.3 503.94,-911.94"/>
<polygon fill="black" stroke="black" points="506.52,-914.31 510.94,-904.68 501.48,-909.45 506.52,-914.31"/>
<text text-anchor="middle" x="505" y="-933.8" font-family="Courier,monospace" font-size="14.00">eps</text>
</g>
<!-- 46&#45;&gt;0 -->
<g id="edge60" class="edge">
<title>46&#45;&gt;0</title>
<path fill="none" stroke="black" d="M527.1,-868.82C525.95,-809.64 522.64,-639.08 521.19,-564.56"/>
<polygon fill="black" stroke="black" points="524.68,-564.21 520.99,-554.28 517.69,-564.35 524.68,-564.21"/>
<text text-anchor="middle" x="529" y="-707.8" font-family="Courier,monospace" font-size="14.00">b</text>
</g>
<!-- 46&#45;&gt;7 -->
<g id="edge61" class="edge">
<title>46&#45;&gt;7</title>
<path fill="none" stroke="black" d="M512.67,-874.83C506.09,-867.92 498.5,-859.37 492.5,-851 484.23,-839.45 476.45,-825.69 470.43,-814.12"/>
<polygon fill="black" stroke="black" points="473.45,-812.34 465.81,-805 467.21,-815.51 473.45,-812.34"/>
<text text-anchor="middle" x="505" y="-839.8" font-family="Courier,monospace" font-size="14.00">eps</text>
</g>
<!-- 35 -->
<g id="node50" class="node">
<title>35</title>
<ellipse fill="#a6cee3" stroke="black" cx="699.5" cy="-992.5" rx="25.5" ry="25.5"/>
<ellipse fill="none" stroke="black" cx="699.5" cy="-992.5" rx="29.5" ry="29.5"/>
<text text-anchor="middle" x="699.5" y="-988.8" font-family="Courier,monospace" font-size="14.00">35</text>
</g>
<!-- 35&#45;&gt;4 -->
<g id="edge63" class="edge">
<title>35&#45;&gt;4</title>
<path fill="none" stroke="black" d="M686.1,-966.08C680.04,-954.88 672.64,-941.65 665.5,-930 662.26,-924.71 658.62,-919.13 655.12,-913.9"/>
<polygon fill="black" stroke="black" points="657.96,-911.86 649.44,-905.56 652.17,-915.8 657.96,-911.86"/>
<text text-anchor="middle" x="678" y="-933.8" font-family="Courier,monospace" font-size="14.00">b</text>
</g>
</g>
</svg>
